<svg width="64" height="64" xmlns="http://www.w3.org/2000/svg">

 <title/>
 <g>
  <title>background</title>
  <rect fill="none" id="canvas_background" height="402" width="582" y="-1" x="-1"/>
 </g>
 <g>
  <title>Layer 1</title>
  <path stroke-width="NaN" stroke-linejoin="round" stroke-linecap="round" stroke="#b2b2b2" fill="none" id="svg_1" d="m57,27.89l6,0l0,28.11l-4.84,0l-1.27,5.71a1.37,1.37 0 0 1 -2.6,0.24l-2.55,-6l-26.74,0l0,-20.39" class="cls-1"/>
  <path stroke-width="NaN" stroke-linejoin="round" stroke-linecap="round" stroke="#b2b2b2" fill="none" id="svg_2" d="m53.91,32.75l-33.51,0l-8.4,8.75a1.54,1.54 0 0 1 -2.57,-0.57l-2.81,-8.18l-5.62,0l0,-31.75l52.91,0l0,31.75z" class="cls-1"/>
  <line stroke-width="NaN" stroke-linejoin="round" stroke-linecap="round" stroke="#b2b2b2" fill="none" id="svg_3" y2="8" y1="8" x2="48" x1="7" class="cls-1"/>
  <line stroke-width="NaN" stroke-linejoin="round" stroke-linecap="round" stroke="#b2b2b2" fill="none" id="svg_4" y2="16" y1="16" x2="48" x1="7" class="cls-1"/>
  <line stroke-width="NaN" stroke-linejoin="round" stroke-linecap="round" stroke="#b2b2b2" fill="none" id="svg_5" y2="23.565217" y1="23.565217" x2="37.894928" x1="7.144928" class="cls-1"/>
 </g>
</svg>