<svg width="128" height="128" xmlns="http://www.w3.org/2000/svg">

 <g>
  <title>background</title>
  <rect fill="none" id="canvas_background" height="402" width="582" y="-1" x="-1"/>
 </g>
 <g>
  <title>Layer 1</title>
  <path id="svg_3" fill="#575757" d="m106.456,120l-84.912,0c-2.756,0 -5.417,-1.153 -7.3,-3.165c-1.884,-2.012 -2.86,-4.742 -2.68,-7.491l3.947,-60c0.346,-5.24 4.73,-9.344 9.98,-9.344l77.018,0c5.25,0 9.634,4.104 9.979,9.343l3.947,60.001c0.181,2.749 -0.796,5.479 -2.68,7.491c-1.882,2.012 -4.543,3.165 -7.299,3.165zm-80.965,-76c-3.15,0 -5.78,2.463 -5.987,5.606l-3.947,59.999c-0.11,1.675 0.46,3.271 1.606,4.495c1.147,1.225 2.703,1.899 4.381,1.899l84.912,0c1.678,0 3.233,-0.675 4.381,-1.899c1.146,-1.225 1.717,-2.82 1.606,-4.495l-3.947,-60c-0.207,-3.143 -2.837,-5.605 -5.987,-5.605l-77.018,0z"/>
  <path id="svg_5" fill="#575757" d="m97,56c-1.104,0 -2,-0.896 -2,-2l0,-4.5c0,-21.229 -13.906,-38.5 -31,-38.5s-31,17.271 -31,38.5l0,4.5c0,1.104 -0.896,2 -2,2s-2,-0.896 -2,-2l0,-4.5c0,-23.435 15.701,-42.5 35,-42.5s35,19.065 35,42.5l0,4.5c0,1.104 -0.896,2 -2,2z"/>
 </g>
</svg>